<svg width="77" height="78" viewBox="0 0 77 78" fill="none" xmlns="http://www.w3.org/2000/svg">
<path d="M25.5442 71.5658V48.7105C25.5442 46.69 26.3359 44.7522 27.7452 43.3235C29.1545 41.8948 31.0659 41.0921 33.059 41.0921H40.5737C42.5668 41.0921 44.4782 41.8948 45.8875 43.3235C47.2968 44.7522 48.0885 46.69 48.0885 48.7105" stroke="white" stroke-width="5" stroke-linecap="round" stroke-linejoin="round"/>
<path d="M63.1182 37.2829H70.6329L36.8165 3L3 37.2829H10.5148V63.9474C10.5148 65.9679 11.3065 67.9057 12.7158 69.3344C14.1251 70.7631 16.0365 71.5658 18.0295 71.5658H38.6952M51.846 63.9474H74.3903M63.1182 52.5197L74.3903 63.9474L63.1182 75.375" stroke="white" stroke-width="5" stroke-linecap="round" stroke-linejoin="round"/>
</svg>
