<svg width="199" height="199" viewBox="0 0 199 199" fill="none" xmlns="http://www.w3.org/2000/svg">
<g clip-path="url(#clip0_105_105)">
<path fill-rule="evenodd" clip-rule="evenodd" d="M100 7.33333C49.375 7.33333 8.33331 48.375 8.33331 99C8.33331 149.625 49.375 190.667 100 190.667C150.625 190.667 191.667 149.625 191.667 99C191.667 48.375 150.625 7.33333 100 7.33333ZM95.8333 49C93.6232 49 91.5036 49.878 89.9408 51.4408C88.378 53.0036 87.5 55.1232 87.5 57.3333C87.5 59.5435 88.378 61.6631 89.9408 63.2259C91.5036 64.7887 93.6232 65.6667 95.8333 65.6667H100C102.21 65.6667 104.33 64.7887 105.893 63.2259C107.455 61.6631 108.333 59.5435 108.333 57.3333C108.333 55.1232 107.455 53.0036 105.893 51.4408C104.33 49.878 102.21 49 100 49H95.8333ZM83.3333 82.3333C81.1232 82.3333 79.0036 83.2113 77.4408 84.7741C75.878 86.3369 75 88.4565 75 90.6667C75 92.8768 75.878 94.9964 77.4408 96.5592C79.0036 98.122 81.1232 99 83.3333 99H91.6667V124H83.3333C81.1232 124 79.0036 124.878 77.4408 126.441C75.878 128.004 75 130.123 75 132.333C75 134.543 75.878 136.663 77.4408 138.226C79.0036 139.789 81.1232 140.667 83.3333 140.667H116.667C118.877 140.667 120.996 139.789 122.559 138.226C124.122 136.663 125 134.543 125 132.333C125 130.123 124.122 128.004 122.559 126.441C120.996 124.878 118.877 124 116.667 124H108.333V90.6667C108.333 88.4565 107.455 86.3369 105.893 84.7741C104.33 83.2113 102.21 82.3333 100 82.3333H83.3333Z" fill="white"/>
</g>
<defs>
<clipPath id="clip0_105_105">
<rect width="199" height="199" fill="white"/>
</clipPath>
</defs>
</svg>
