<svg width="199" height="199" viewBox="0 0 199 199" fill="none" xmlns="http://www.w3.org/2000/svg">
<g clip-path="url(#clip0_105_107)">
<path d="M153.208 164.833H42.1667V53.7917C42.1667 49.0938 38.3229 45.25 33.625 45.25C28.9271 45.25 25.0833 49.0938 25.0833 53.7917V164.833C25.0833 174.229 32.7708 181.917 42.1667 181.917H153.208C157.906 181.917 161.75 178.073 161.75 173.375C161.75 168.677 157.906 164.833 153.208 164.833Z" fill="white"/>
<path d="M178.833 11.0833H76.3333C66.9375 11.0833 59.25 18.7708 59.25 28.1667V130.667C59.25 140.062 66.9375 147.75 76.3333 147.75H178.833C188.229 147.75 195.917 140.062 195.917 130.667V28.1667C195.917 18.7708 188.229 11.0833 178.833 11.0833ZM127.669 122.125C122.629 122.125 118.7 118.11 118.7 113.156C118.7 108.117 122.715 104.273 127.669 104.273C132.708 104.273 136.552 108.117 136.552 113.156C136.467 118.11 132.708 122.125 127.669 122.125ZM149.023 69.4229C143.642 77.3667 138.517 79.7583 135.698 84.8833C135.015 86.0792 134.588 87.1042 134.331 89.0687C133.904 92.4 131.256 94.8771 127.925 94.8771H127.669C123.91 94.8771 120.921 91.6312 121.263 87.8729C121.519 85.4812 122.031 83.0042 123.398 80.6979C126.9 74.4625 133.477 70.7896 137.321 65.3229C141.421 59.5146 139.115 48.7521 127.583 48.7521C122.373 48.7521 118.956 51.4854 116.821 54.7312C115.198 57.2083 111.952 58.0625 109.219 56.8667C105.631 55.3292 104.094 50.8875 106.315 47.7271C110.671 41.4062 117.931 36.7083 127.498 36.7083C138.004 36.7083 145.265 41.4917 148.938 47.4708C152.098 52.6812 153.892 62.2479 149.023 69.4229Z" fill="white"/>
</g>
<defs>
<clipPath id="clip0_105_107">
<rect width="199" height="199" fill="white"/>
</clipPath>
</defs>
</svg>
