<svg width="200" height="200" viewBox="0 0 200 200" fill="none" xmlns="http://www.w3.org/2000/svg">
<path d="M71.6194 0.060345C70.3003 0.226317 69.0405 0.635883 67.9293 1.25998C67.9293 1.25998 56.4319 7.38121 44.071 14.0023C31.7101 20.6157 17.9586 27.9058 14.8139 29.3823C14.6199 29.4535 14.4289 29.5305 14.2413 29.613C2.82563 35.5727 0.453435 45.3082 0.0444346 50.7681C0.0171679 51.0219 0.0444346 51.2295 0.0444346 51.4987C-0.0555432 53.5442 0.0444346 54.8592 0.0444346 54.8592V155.313C0.0444346 169.909 20.1581 176.93 39.2448 176.93C45.607 176.93 51.9693 176.061 57.4226 174.523C61.0581 172.985 63.6667 169.909 63.6667 166.833V86.0882C63.6667 68.4013 68.2111 60.0961 81.8444 53.1751C85.48 51.6371 123.599 29.3746 123.599 29.3746C125.417 27.8366 127.289 24.7144 127.289 22.4074V21.6846C127.289 18.6086 125.471 16.2555 122.744 14.7175C120.018 13.1795 116.382 13.1795 113.656 14.7175C112.747 15.4865 57.3044 47.0692 45.4889 52.4522C33.6733 58.6042 22.6485 60.0884 19.9218 57.0124C19.0766 56.2972 18.3404 54.1056 18.2222 51.9678V51.4833C18.2313 49.3916 18.8675 45.4543 23.9028 42.8321C29.0107 40.4251 41.6897 33.5733 54.0143 26.9753C59.2222 24.1838 59.8675 23.8839 63.9484 21.6846C64.4856 23.5632 65.8392 25.2018 67.7398 26.2741C69.6404 27.3465 71.9486 27.7739 74.2049 27.4714C76.4611 27.1689 78.5 26.1587 79.9157 24.6417C81.3314 23.1248 82.02 21.2124 81.8444 19.2853V7.75033C81.8546 6.65424 81.5877 5.56897 81.0616 4.56729C80.5355 3.5656 79.7624 2.67065 78.7942 1.94242C77.8259 1.21419 76.6848 0.669522 75.4473 0.344922C74.2099 0.0203227 72.9048 -0.0767046 71.6194 0.060345ZM144.331 26.9753C142.885 27.1787 141.519 27.6747 140.35 28.421C140.35 28.421 94.5961 54.467 86.6706 58.9349C86.5746 59.0151 86.4806 59.0972 86.3889 59.181C79.8085 63.3566 75.9094 68.3244 74.1734 72.8691C73.2007 75.433 72.722 78.1126 72.7555 80.8052V83.2122C72.7424 83.4504 72.7424 83.6891 72.7555 83.9273V176.93C72.7555 191.541 92.642 200 110.82 200C119 200 126.38 198.508 131.833 195.432C142.74 190.049 195.456 155.306 195.456 155.306C198.182 153.768 200 151.599 200 149.292V49.3224C200 45.4774 198.237 43.1704 194.601 41.6324C191.875 40.0944 187.394 40.8173 184.667 42.3553C170.125 51.5833 130.979 77.6369 121.89 82.2509C109.166 88.4029 97.1774 89.9409 92.6329 86.0959C90.8152 84.5579 90.9333 83.1122 90.9333 80.8052C90.9879 79.4825 91.1605 78.3444 91.5059 77.437C92.0149 76.0989 93.051 74.4533 96.8956 71.9156C97.0774 71.7925 96.9865 71.8002 97.1774 71.6772C103.749 67.9629 123.844 56.3741 136.95 48.8379C137.693 50.5233 139.11 51.9352 140.956 52.8279C142.801 53.7207 144.958 54.0378 147.052 53.7242C149.145 53.4106 151.042 52.486 152.413 51.1114C153.784 49.7367 154.542 47.9989 154.556 46.2003V34.6653C154.566 33.5692 154.299 32.4839 153.773 31.4822C153.247 30.4806 152.474 29.5856 151.505 28.8574C150.537 28.1291 149.396 27.5845 148.158 27.2599C146.921 26.9353 145.616 26.8382 144.331 26.9753ZM181.822 83.2122V98.5921L136.378 128.383V113.003L181.822 83.2122Z" fill="white"/>
</svg>
